<mxfile host="app.diagrams.net" modified="2023-12-20T01:53:04.456Z" agent="Mozilla/5.0 (Windows NT 10.0; Win64; x64) AppleWebKit/537.36 (KHTML, like Gecko) Chrome/120.0.0.0 Safari/537.36" version="22.1.11" etag="HarLlzLmfszj7iGwRKrt" type="github">
  <diagram name="Seite-1" id="xe0tUU8hpCdlSDJ9yl9q">
    <mxGraphModel>
      <root>
        <mxCell id="0" />
        <mxCell id="1" parent="0" />
      </root>
    </mxGraphModel>
  </diagram>
</mxfile>
